<?xml version="1.0" encoding="utf-8"?>
<!-- Generator: Adobe Illustrator 19.0.1, SVG Export Plug-In . SVG Version: 6.00 Build 0)  -->
<svg version="1.1" id="Layer_1" xmlns="http://www.w3.org/2000/svg" xmlns:xlink="http://www.w3.org/1999/xlink" x="0px" y="0px"
	 viewBox="0 0 26 26" style="enable-background:new 0 0 26 26;" xml:space="preserve">
<style type="text/css">

</style>
<g id="kolo_svg">
<path class="orange" d="M5,12.9c0-4.4,3.6-8,8-8c4.5,0,8,3.6,8,8s-3.6,8-8,8S5,17.3,5,12.9L5,12.9z M0.2,12.9C0.2,19.9,6,25.7,13,25.7
	S25.8,20,25.8,12.9S20,0.1,13,0.1S0.2,5.8,0.2,12.9L0.2,12.9z"/>
<path class="orange" d="M13,7.1c-3.1,0-5.8,2.6-5.8,5.8s2.6,5.8,5.8,5.8s5.8-2.6,5.8-5.8S16.2,7.1,13,7.1z"/>
</g>
</svg>
